<?xml version="1.0" encoding="UTF-8"?>
<svg width="752pt" height="752pt" version="1.1" viewBox="0 0 752 752" xmlns="http://www.w3.org/2000/svg">
 <g>
  <path d="m377.69 580.36c-9.168 0-18.59-0.53906-28.215-1.6328-26.223-2.9688-47.461-9.2109-64.941-19.074-21.719-12.258-37.438-30.305-44.258-50.82-2.957-8.8984-3.4492-16.406-1.5117-22.953 2.5469-8.5938 9.7969-14.852 17.641-15.211 10.742-0.53125 18.508 9.1484 21.883 17.559 1.4336 3.5625 2.4531 7.2852 3.4414 10.875 1.4102 5.1445 2.75 10.004 5.1758 14.406 10.391 18.852 35.949 22.352 59.582 23.289 40.559 1.6133 82.418 1.1562 111.39-22.059-8.582-1.0938-17.266-1.3867-25.891-0.875l-1.668 0.097657-0.65234-1.5391c-0.13672-0.33203-0.26953-0.66406-0.39453-1-15.371 1.7305-30.961 2.6953-46.402 2.8633-6.707 0.070313-13.645-0.14062-19.539-3.2812-10.578 13.387-30.289 18.348-45.914 11.23-4.3672-1.9883-6.7617-4.7891-6.9375-8.0898-0.085938-1.625 0.39453-3.0586 1.1016-4.3281-5.2227 1.2969-7.7695 0.46484-12.312-1.0234l-2.625-0.84375c-4.7539-1.4805-8.9727-5.4883-10.742-10.215-1.3906-3.7227-1.1172-7.457 0.77344-10.527 1.582-2.5664 3.9219-4.1914 6.1836-5.7578 0.71875-0.50391 1.4414-1 2.125-1.5312 13.02-10.094 11.672-30.684 4.9141-45.551-2.9023-6.3789-6.6758-12.559-10.324-18.535-5.4258-8.8789-11.035-18.066-14.09-28.32-3.3633-11.301-3.418-23.176-3.4727-34.66-0.019531-4.7188-0.042969-9.5938-0.29688-14.332-0.17188-3.1289-0.45312-6.4141-1.9141-9.0547-1.3828-2.5117-3.7734-4.4141-6.3047-6.4297-0.64844-0.51562-1.2969-1.0391-1.9336-1.5625-15.789-13.172-23.973-36.012-21.879-61.082 1.8516-22.25 10.633-42.863 19.129-62.801 3.582-8.4062 8.0352-18.871 16.574-25.312l0.5625-0.42188 2.9258-0.19922c8.2461-0.6875 11.195 7.9883 13.543 14.961 0.64062 1.8984 1.2695 3.7773 1.9844 5.4453 5.1094 11.887 20.449 15.273 34.789 17.02 10.551 1.2852 21.473 2.0352 28.883-3.9336 1.9609-1.582 3.5898-3.582 5.3164-5.6914 1.4297-1.7539 2.9062-3.5664 4.6367-5.1914 6.1836-5.8047 15.207-8.4766 23.562-6.9727l1.5391 0.28125 0.35156 1.5312c3.0781 13.555 1.6523 27.762 0.27344 41.508-1.7578 17.492-3.418 34.023 3.5625 48.957 8.3789 17.93 26.062 27.367 44.793 37.359 11.523 6.1523 23.441 12.512 33.191 21.082 20.566 18.07 30.512 45.355 38.223 69.508 6.3398 19.852 12.418 41.051 11.055 62.723-2.2695 36.117-27.102 71.895-63.266 91.156-23.547 12.539-52.074 18.961-83.625 18.961zm-120.53-104.98c-0.17969 0-0.35547 0-0.53516 0.007813-6.5312 0.29688-11.641 6.1758-13.316 11.828-1.6562 5.5898-1.1797 12.168 1.4648 20.113 6.4453 19.402 21.395 36.512 42.086 48.191 16.918 9.5469 37.574 15.594 63.148 18.5 41.82 4.7305 79.539-1.0742 109.09-16.809 34.742-18.504 58.59-52.758 60.766-87.266 1.3125-20.852-4.6367-41.562-10.836-60.988-7.5156-23.547-17.18-50.113-36.84-67.391-9.3398-8.207-21.012-14.434-32.297-20.457-18.582-9.9219-37.801-20.176-46.852-39.539-7.5312-16.117-5.7266-34.07-3.9844-51.438 1.2891-12.816 2.6172-26.047 0.15625-38.398-6.4141-0.67188-13.195 1.543-17.926 5.9844-1.5 1.4062-2.8164 3.0195-4.2148 4.7305-1.8008 2.207-3.6641 4.4883-6.0156 6.3828-8.8477 7.1289-20.875 6.3555-32.43 4.9453-15.672-1.9102-32.512-5.7578-38.57-19.848-0.76172-1.7773-1.4414-3.7734-2.1211-5.8047-2.4688-7.332-4.4102-12.059-8.6992-11.75l-1.543 0.10547c-7.1797 5.7109-11.078 14.867-14.523 22.961-8.3438 19.594-16.973 39.852-18.762 61.34-1.9609 23.543 5.5898 44.871 20.199 57.059 0.60547 0.50391 1.2266 1 1.8477 1.4922 2.7852 2.2227 5.6602 4.5117 7.5 7.8516 1.9375 3.5195 2.3008 7.5664 2.4922 11.086 0.26563 4.8477 0.28906 9.7852 0.30859 14.562 0.050782 11.152 0.10547 22.688 3.2734 33.336 2.8789 9.6641 8.0859 18.18 13.59 27.203 3.7266 6.1016 7.5781 12.402 10.594 19.043 7.5 16.504 8.7227 39.586-6.3281 51.25-0.75 0.58203-1.5352 1.1289-2.3203 1.6758-1.9492 1.3555-3.7891 2.6328-4.8555 4.3633-1.4141 2.2969-0.98047 4.7344-0.36328 6.3789 1.2539 3.3477 4.3516 6.3047 7.7109 7.3516l2.6914 0.86719c4.6133 1.5117 6.1523 2.0117 10.945 0.59375l9.0391-11.992c2.75-3.6211 3.8203-4.6523 5.4219-4.3984l1.3828 0.20313 0.57422 1.3828c1.1641 3.1289-8.3672 17.078-9.8945 18.848l-0.39453 0.45312c-1.3203 1.5156-2.6836 3.0859-2.6094 4.5195 0.097656 1.9609 2.9492 3.4648 4.1719 4.0273 14.035 6.3984 32.602 1.2852 41.375-11.402l1.3359-1.9336 1.9414 1.3203c5.1445 3.5 12.117 3.7383 18.777 3.6406 15.094-0.17188 30.324-1.1016 45.352-2.7695-0.6875-5.5391 0.77344-11.332 4.1719-15.816 0.86328-1.1367 1.8359-2.1836 2.8164-3.2305 1.3984-1.4922 2.7188-2.9023 3.5703-4.5195 1.1289-2.1367 1.293-4.8398 0.44922-7.4219-0.84375-2.582-2.5703-4.668-4.7461-5.7305-1.1758-0.57422-1.6641-1.9883-1.0898-3.1641 0.57422-1.1797 2.0039-1.6641 3.1641-1.0898 3.3203 1.6211 5.9336 4.7266 7.1758 8.5195 1.2344 3.7891 0.96094 7.8359-0.76172 11.102-1.1445 2.1719-2.75 3.8867-4.3047 5.5469-0.86719 0.92187-1.7383 1.8516-2.5 2.8555-2.6328 3.4727-3.7656 8.0977-3.2266 12.461 1.0938 0.09375 2.0039 0.94141 2.1445 2.0742 0.023437 0.20703 0.019531 0.41797-0.003906 0.61719 9.6055-0.35156 19.254 0.26562 28.738 1.8359l4.8125 0.79687-3.6055 3.2852c-30.367 27.719-75.27 28.359-118.68 26.633-24.949-0.98828-52.008-4.8203-63.539-25.738-2.6992-4.8984-4.1719-10.258-5.5977-15.438-0.95312-3.4648-1.9375-7.0508-3.2695-10.363-2.9375-7.3711-9.2188-14.629-16.727-14.629z"/>
  <path d="m359.18 280.48c0 4.7383-3.8438 8.582-8.582 8.582-4.7383 0-8.582-3.8438-8.582-8.582s3.8438-8.582 8.582-8.582c4.7383 0 8.582 3.8438 8.582 8.582"/>
  <path d="m273.37 269.57c0 4.1758-3.3867 7.5625-7.5625 7.5625-4.1758 0-7.5625-3.3867-7.5625-7.5625s3.3867-7.5625 7.5625-7.5625c4.1758 0 7.5625 3.3867 7.5625 7.5625"/>
  <path d="m312.93 287.61c0 2.2461-4.2969 4.0703-9.5977 4.0703-5.3047 0-9.6016-1.8242-9.6016-4.0703 0-2.25 4.2969-4.0742 9.6016-4.0742 5.3008 0 9.5977 1.8242 9.5977 4.0742"/>
  <path d="m389.61 307.53c-0.64844 0-1.293-0.26562-1.7617-0.78516-3.9219-4.3672-9.2188-7.5586-14.918-8.9883-1.2695-0.31641-2.043-1.6016-1.7188-2.8711 0.31641-1.2734 1.5898-2.043 2.8711-1.7188 6.6055 1.6523 12.75 5.3516 17.289 10.418 0.875 0.97656 0.78906 2.4688-0.17969 3.3438-0.45703 0.40234-1.0195 0.60156-1.582 0.60156z"/>
  <path d="m381.68 319c-0.78516 0-1.5547-0.38672-2.0039-1.0977-3.0039-4.7422-7.1406-8.7656-11.961-11.637-1.1211-0.66797-1.4922-2.1211-0.82422-3.25 0.67188-1.1211 2.1211-1.4961 3.25-0.82422 5.4609 3.25 10.145 7.8047 13.539 13.172 0.69922 1.1016 0.375 2.5664-0.73438 3.2695-0.39453 0.25-0.83203 0.36719-1.2656 0.36719z"/>
  <path d="m221.07 281.95c-0.90625 0-1.7695-0.51953-2.1641-1.3984-0.53516-1.1953 0-2.5938 1.1875-3.1289 6.75-3.0312 14.199-4.1953 21.562-3.3633 1.2969 0.14844 2.2344 1.3203 2.0898 2.6172-0.14844 1.2969-1.3086 2.207-2.6172 2.0898-6.5078-0.73438-13.113 0.29297-19.09 2.9727-0.31641 0.14453-0.64453 0.21094-0.96875 0.21094z"/>
  <path d="m225.57 296.78c-0.84766 0-1.6641-0.45312-2.0898-1.25-0.61719-1.1523-0.18359-2.5859 0.97266-3.207 5.7344-3.0703 12.195-4.5508 18.703-4.5352 1.3086 0.019532 2.3555 1.0938 2.3281 2.4062-0.023437 1.3086-0.93359 2.4219-2.4062 2.3281-5.7227-0.023437-11.367 1.2891-16.391 3.9766-0.35938 0.19141-0.74219 0.28125-1.1172 0.28125z"/>
 </g>
</svg>
